<svg width="18" height="28" viewBox="0 0 18 28" fill="none" xmlns="http://www.w3.org/2000/svg">
<mask id="path-1-outside-1" maskUnits="userSpaceOnUse" x="0" y="0" width="18" height="28" fill="black">
<rect fill="white" width="18" height="28"/>
<path fill-rule="evenodd" clip-rule="evenodd" d="M14.0909 2.45592V7.93098C15.7157 8.05546 17 9.41757 17 11.0752V23.6932C17 25.4326 15.5862 26.8477 13.8485 26.8477H4.15152C2.41377 26.8477 1 25.4326 1 23.6932V11.0752C1 9.41752 2.28431 8.05541 3.90909 7.93098V2.45592H3.18182C2.78017 2.45592 2.45455 2.12999 2.45455 1.72796C2.45455 1.32593 2.78017 1 3.18182 1H14.8182C15.2198 1 15.5455 1.32593 15.5455 1.72796C15.5455 2.12999 15.2198 2.45592 14.8182 2.45592H14.0909ZM12.6364 2.45592H5.36364V7.92074H8.27273V5.46482H7.54546C7.14381 5.46482 6.81818 5.13889 6.81818 4.73686C6.81818 4.33483 7.14381 4.0089 7.54546 4.0089H10.4545C10.8562 4.0089 11.1818 4.33483 11.1818 4.73686C11.1818 5.13889 10.8562 5.46482 10.4545 5.46482H9.72727V7.92074H12.6364V2.45592ZM13.8485 25.3918C14.7842 25.3918 15.5455 24.6298 15.5455 23.6932V23.5099H15.5483V11.2715H15.5455V11.0752C15.5455 10.1386 14.7842 9.37666 13.8485 9.37666H4.15152C3.21581 9.37666 2.45455 10.1386 2.45455 11.0752V11.3179H2.46225V12.7738H2.45455V21.9946H2.46225V23.4505H2.45455V23.6932C2.45455 24.6298 3.21581 25.3918 4.15152 25.3918H13.8485Z"/>
</mask>
<path fill-rule="evenodd" clip-rule="evenodd" d="M14.0909 2.45592V7.93098C15.7157 8.05546 17 9.41757 17 11.0752V23.6932C17 25.4326 15.5862 26.8477 13.8485 26.8477H4.15152C2.41377 26.8477 1 25.4326 1 23.6932V11.0752C1 9.41752 2.28431 8.05541 3.90909 7.93098V2.45592H3.18182C2.78017 2.45592 2.45455 2.12999 2.45455 1.72796C2.45455 1.32593 2.78017 1 3.18182 1H14.8182C15.2198 1 15.5455 1.32593 15.5455 1.72796C15.5455 2.12999 15.2198 2.45592 14.8182 2.45592H14.0909ZM12.6364 2.45592H5.36364V7.92074H8.27273V5.46482H7.54546C7.14381 5.46482 6.81818 5.13889 6.81818 4.73686C6.81818 4.33483 7.14381 4.0089 7.54546 4.0089H10.4545C10.8562 4.0089 11.1818 4.33483 11.1818 4.73686C11.1818 5.13889 10.8562 5.46482 10.4545 5.46482H9.72727V7.92074H12.6364V2.45592ZM13.8485 25.3918C14.7842 25.3918 15.5455 24.6298 15.5455 23.6932V23.5099H15.5483V11.2715H15.5455V11.0752C15.5455 10.1386 14.7842 9.37666 13.8485 9.37666H4.15152C3.21581 9.37666 2.45455 10.1386 2.45455 11.0752V11.3179H2.46225V12.7738H2.45455V21.9946H2.46225V23.4505H2.45455V23.6932C2.45455 24.6298 3.21581 25.3918 4.15152 25.3918H13.8485Z" fill="white"/>
<path d="M14.0909 7.93098H13.8909V8.11624L14.0756 8.13039L14.0909 7.93098ZM14.0909 2.45592V2.25592H13.8909V2.45592H14.0909ZM3.90909 7.93098L3.92436 8.13039L4.10909 8.11625V7.93098H3.90909ZM3.90909 2.45592H4.10909V2.25592H3.90909V2.45592ZM5.36364 2.45592V2.25592H5.16364V2.45592H5.36364ZM12.6364 2.45592H12.8364V2.25592H12.6364V2.45592ZM5.36364 7.92074H5.16364V8.12074H5.36364V7.92074ZM8.27273 7.92074V8.12074H8.47273V7.92074H8.27273ZM8.27273 5.46482H8.47273V5.26482H8.27273V5.46482ZM9.72727 5.46482V5.26482H9.52727V5.46482H9.72727ZM9.72727 7.92074H9.52727V8.12074H9.72727V7.92074ZM12.6364 7.92074V8.12074H12.8364V7.92074H12.6364ZM15.5455 23.5099V23.3099H15.3455V23.5099H15.5455ZM15.5483 23.5099V23.7099H15.7483V23.5099H15.5483ZM15.5483 11.2715H15.7483V11.0715H15.5483V11.2715ZM15.5455 11.2715H15.3455V11.4715H15.5455V11.2715ZM2.45455 11.3179H2.25455V11.5179H2.45455V11.3179ZM2.46225 11.3179H2.66225V11.1179H2.46225V11.3179ZM2.46225 12.7738V12.9738H2.66225V12.7738H2.46225ZM2.45455 12.7738V12.5738H2.25455V12.7738H2.45455ZM2.45455 21.9946H2.25455V22.1946H2.45455V21.9946ZM2.46225 21.9946H2.66225V21.7946H2.46225V21.9946ZM2.46225 23.4505V23.6505H2.66225V23.4505H2.46225ZM2.45455 23.4505V23.2505H2.25455V23.4505H2.45455ZM14.2909 7.93098V2.45592H13.8909V7.93098H14.2909ZM17.2 11.0752C17.2 9.31221 15.8344 7.86396 14.1062 7.73156L14.0756 8.13039C15.597 8.24695 16.8 9.52292 16.8 11.0752H17.2ZM17.2 23.6932V11.0752H16.8V23.6932H17.2ZM13.8485 27.0477C15.6969 27.0477 17.2 25.5429 17.2 23.6932H16.8C16.8 25.3223 15.4756 26.6477 13.8485 26.6477V27.0477ZM4.15152 27.0477H13.8485V26.6477H4.15152V27.0477ZM0.8 23.6932C0.8 25.5429 2.30313 27.0477 4.15152 27.0477V26.6477C2.5244 26.6477 1.2 25.3223 1.2 23.6932H0.8ZM0.8 11.0752V23.6932H1.2V11.0752H0.8ZM3.89382 7.73156C2.16564 7.86391 0.8 9.31217 0.8 11.0752H1.2C1.2 9.52287 2.40299 8.24691 3.92436 8.13039L3.89382 7.73156ZM3.70909 2.45592V7.93098H4.10909V2.45592H3.70909ZM3.18182 2.65592H3.90909V2.25592H3.18182V2.65592ZM2.25455 1.72796C2.25455 2.24027 2.66953 2.65592 3.18182 2.65592V2.25592C2.8908 2.25592 2.65455 2.01971 2.65455 1.72796H2.25455ZM3.18182 0.8C2.66953 0.8 2.25455 1.21565 2.25455 1.72796H2.65455C2.65455 1.43621 2.8908 1.2 3.18182 1.2V0.8ZM14.8182 0.8H3.18182V1.2H14.8182V0.8ZM15.7455 1.72796C15.7455 1.21565 15.3305 0.8 14.8182 0.8V1.2C15.1092 1.2 15.3455 1.43621 15.3455 1.72796H15.7455ZM14.8182 2.65592C15.3305 2.65592 15.7455 2.24027 15.7455 1.72796H15.3455C15.3455 2.01971 15.1092 2.25592 14.8182 2.25592V2.65592ZM14.0909 2.65592H14.8182V2.25592H14.0909V2.65592ZM5.36364 2.65592H12.6364V2.25592H5.36364V2.65592ZM5.56364 7.92074V2.45592H5.16364V7.92074H5.56364ZM8.27273 7.72074H5.36364V8.12074H8.27273V7.72074ZM8.07273 5.46482V7.92074H8.47273V5.46482H8.07273ZM7.54546 5.66482H8.27273V5.26482H7.54546V5.66482ZM6.61818 4.73686C6.61818 5.24917 7.03317 5.66482 7.54546 5.66482V5.26482C7.25444 5.26482 7.01818 5.02861 7.01818 4.73686H6.61818ZM7.54546 3.8089C7.03317 3.8089 6.61818 4.22455 6.61818 4.73686H7.01818C7.01818 4.44511 7.25444 4.2089 7.54546 4.2089V3.8089ZM10.4545 3.8089H7.54546V4.2089H10.4545V3.8089ZM11.3818 4.73686C11.3818 4.22455 10.9668 3.8089 10.4545 3.8089V4.2089C10.7456 4.2089 10.9818 4.44511 10.9818 4.73686H11.3818ZM10.4545 5.66482C10.9668 5.66482 11.3818 5.24917 11.3818 4.73686H10.9818C10.9818 5.02861 10.7456 5.26482 10.4545 5.26482V5.66482ZM9.72727 5.66482H10.4545V5.26482H9.72727V5.66482ZM9.92727 7.92074V5.46482H9.52727V7.92074H9.92727ZM12.6364 7.72074H9.72727V8.12074H12.6364V7.72074ZM12.4364 2.45592V7.92074H12.8364V2.45592H12.4364ZM15.3455 23.6932C15.3455 24.5195 14.6736 25.1918 13.8485 25.1918V25.5918C14.8948 25.5918 15.7455 24.7401 15.7455 23.6932H15.3455ZM15.3455 23.5099V23.6932H15.7455V23.5099H15.3455ZM15.5483 23.3099H15.5455V23.7099H15.5483V23.3099ZM15.3483 11.2715V23.5099H15.7483V11.2715H15.3483ZM15.5455 11.4715H15.5483V11.0715H15.5455V11.4715ZM15.3455 11.0752V11.2715H15.7455V11.0752H15.3455ZM13.8485 9.57666C14.6736 9.57666 15.3455 10.2489 15.3455 11.0752H15.7455C15.7455 10.0284 14.8948 9.17666 13.8485 9.17666V9.57666ZM4.15152 9.57666H13.8485V9.17666H4.15152V9.57666ZM2.65455 11.0752C2.65455 10.2489 3.32644 9.57666 4.15152 9.57666V9.17666C3.10517 9.17666 2.25455 10.0284 2.25455 11.0752H2.65455ZM2.65455 11.3179V11.0752H2.25455V11.3179H2.65455ZM2.46225 11.1179H2.45455V11.5179H2.46225V11.1179ZM2.66225 12.7738V11.3179H2.26225V12.7738H2.66225ZM2.45455 12.9738H2.46225V12.5738H2.45455V12.9738ZM2.65455 21.9946V12.7738H2.25455V21.9946H2.65455ZM2.46225 21.7946H2.45455V22.1946H2.46225V21.7946ZM2.66225 23.4505V21.9946H2.26225V23.4505H2.66225ZM2.45455 23.6505H2.46225V23.2505H2.45455V23.6505ZM2.65455 23.6932V23.4505H2.25455V23.6932H2.65455ZM4.15152 25.1918C3.32644 25.1918 2.65455 24.5195 2.65455 23.6932H2.25455C2.25455 24.7401 3.10517 25.5918 4.15152 25.5918V25.1918ZM13.8485 25.1918H4.15152V25.5918H13.8485V25.1918Z" fill="white" mask="url(#path-1-outside-1)"/>
</svg>
